<?xml version="1.0" standalone="no"?>
<!DOCTYPE svg PUBLIC "-//W3C//DTD SVG 20010904//EN"
 "http://www.w3.org/TR/2001/REC-SVG-20010904/DTD/svg10.dtd">
<svg version="1.0" xmlns="http://www.w3.org/2000/svg"
 width="512.000000pt" height="512.000000pt" viewBox="0 0 512.000000 512.000000"
 preserveAspectRatio="xMidYMid meet">
<metadata>
Created by potrace 1.14, written by Peter Selinger 2001-2017
</metadata>
<g transform="translate(0.000000,512.000000) scale(0.100000,-0.100000)"
fill="#000000" stroke="none">
<path d="M374 4364 c-56 -14 -109 -56 -136 -107 l-23 -42 -1 -1515 c-1 -833
-3 -1517 -3 -1521 -1 -3 -43 -5 -93 -6 -51 -1 -99 -2 -105 -2 -17 -1 -18 -218
-2 -275 16 -57 79 -121 136 -137 38 -10 497 -13 2427 -12 l2381 0 41 21 c52
27 100 81 113 129 6 21 11 92 11 158 l0 120 -105 -1 c-71 -1 -105 2 -106 10 0
6 -2 691 -3 1521 l-1 1510 -22 40 c-27 51 -58 80 -108 101 -37 16 -194 17
-2199 18 -1514 1 -2172 -2 -2202 -10z"/>
</g>
</svg>
